<svg width="166" height="44" viewBox="0 0 166 44" fill="none" xmlns="http://www.w3.org/2000/svg">
<path d="M53.5197 16.8809C54.2089 17.2345 54.9702 17.4248 55.7448 17.4372C56.6571 17.4372 57.1411 17.0589 57.1411 16.486C57.1411 15.913 56.7238 15.6237 55.6669 15.2621C54.2095 14.7392 53.2471 13.9326 53.2471 12.6588C53.2471 11.1624 54.5099 10.0276 56.5848 10.0276C57.3497 10.0091 58.1094 10.1592 58.8099 10.467L58.3649 12.058C57.7955 11.7787 57.1689 11.6358 56.5347 11.6408C55.6836 11.6408 55.2664 12.0469 55.2664 12.4863C55.2664 13.0426 55.7448 13.2985 56.8907 13.7268C58.4427 14.2831 59.1548 15.1064 59.1548 16.3413C59.1548 17.8155 58.0422 19.0671 55.628 19.0671C54.7691 19.0757 53.9199 18.8853 53.147 18.5108L53.5197 16.8809Z" fill="white"/>
<path d="M62.1586 10.1444H60.1782V18.9169H62.1586V10.1444Z" fill="white"/>
<path d="M63.627 16.8811C64.3162 17.2347 65.0776 17.4251 65.8521 17.4374C66.7644 17.4374 67.2428 17.0591 67.2428 16.4862C67.2428 15.9132 66.8256 15.6239 65.7742 15.2623C64.3112 14.7394 63.3489 13.9328 63.3489 12.659C63.3489 11.1626 64.6116 10.0278 66.6865 10.0278C67.4516 10.008 68.2115 10.1581 68.9116 10.4672L68.4722 12.0582C67.9044 11.7801 67.2798 11.6373 66.6476 11.641C65.7854 11.641 65.3681 12.0471 65.3681 12.4865C65.3681 13.0428 65.8521 13.2987 66.998 13.727C68.5445 14.2833 69.2621 15.1066 69.2621 16.3415C69.2621 17.8157 68.1495 19.0673 65.7297 19.0673C64.8694 19.0728 64.0191 18.8826 63.2432 18.511L63.627 16.8811Z" fill="white"/>
<path d="M107.362 22.3882H101.91V39.2268H107.362V22.3882ZM123.572 22.3882H109.109V26.4769H113.603V39.2268H119.044V26.4658H123.539L123.572 22.3882ZM83.442 24.0682C82.4017 22.8722 80.9387 22.7387 79.192 22.5496C78.4744 22.4772 77.7568 22.4272 77.067 22.4049C76.3661 22.4049 75.6541 22.4772 74.9365 22.5496C73.1898 22.7387 71.7212 22.8722 70.6865 24.0682C68.4224 26.6827 68.5671 36.3508 71.2595 38.3645C72.372 39.199 74.7195 39.6217 77.0392 39.6329C79.3478 39.6329 81.6841 39.199 82.8078 38.3645C85.5113 36.3508 85.6671 26.6827 83.442 24.0682ZM78.8805 35.2383C78.6493 35.4845 78.3674 35.6776 78.0543 35.8044C77.7412 35.9311 77.4044 35.9885 77.067 35.9725C76.7287 35.9897 76.3906 35.9329 76.0765 35.8061C75.7623 35.6793 75.4796 35.4855 75.248 35.2383C74.3969 34.0868 74.3468 28.5129 75.0588 27.022C75.1763 26.7653 75.364 26.5471 75.6003 26.3926C75.8365 26.2381 76.1117 26.1535 76.3939 26.1487C76.6161 26.1051 76.841 26.0773 77.067 26.0652C77.2912 26.0773 77.5143 26.1051 77.7346 26.1487C78.0178 26.1524 78.2941 26.2365 78.5314 26.3911C78.7687 26.5457 78.9573 26.7645 79.0752 27.022C79.7817 28.5129 79.7316 34.0868 78.8805 35.2383ZM163.663 24.0738C162.623 22.8722 161.154 22.7387 159.407 22.5496C158.695 22.4772 157.978 22.4272 157.282 22.4049C156.587 22.4049 155.869 22.4772 155.157 22.5496C153.411 22.7387 151.942 22.8722 150.902 24.0738C148.677 26.666 148.816 36.3508 151.514 38.359C152.626 39.1934 154.968 39.6162 157.282 39.6273C159.597 39.6273 161.927 39.1934 163.057 38.359C165.755 36.3508 165.91 26.6771 163.663 24.0738ZM159.096 35.2383C158.865 35.4854 158.584 35.6791 158.27 35.806C157.957 35.9328 157.62 35.9896 157.282 35.9725C156.944 35.9893 156.606 35.9324 156.292 35.8056C155.978 35.6788 155.695 35.4852 155.463 35.2383C154.612 34.0868 154.568 28.5129 155.269 27.022C155.383 26.7603 155.57 26.5369 155.808 26.3782C156.046 26.2195 156.324 26.1321 156.609 26.1264C156.831 26.0825 157.056 26.0547 157.282 26.043C157.507 26.0547 157.73 26.0825 157.95 26.1264C158.233 26.1302 158.509 26.2143 158.747 26.3689C158.984 26.5235 159.173 26.7423 159.291 26.9998C159.997 28.4906 159.953 34.0645 159.096 35.216V35.2383ZM68.1165 27.9288C68.1165 26.0652 67.3488 24.2406 66.303 23.434C65.2572 22.6274 64.0278 22.3882 62.2756 22.3882H52.9468V39.2268H58.4094V33.7307H62.3034C63.4987 33.7682 64.6822 33.4839 65.7301 32.9075C67.1708 32.201 68.1443 30.0426 68.1554 27.9343L68.1165 27.9288ZM62.3868 29.0469C61.7765 29.1802 61.1536 29.2473 60.5289 29.2471H58.4094V26.2043H60.5233C61.2532 26.1679 61.9838 26.2601 62.6817 26.4769C62.9418 26.5953 63.1575 26.7934 63.2976 27.0425C63.4376 27.2916 63.4947 27.5789 63.4607 27.8627C63.4266 28.1464 63.3031 28.412 63.108 28.6209C62.913 28.8298 62.6565 28.9712 62.3757 29.0246L62.3868 29.0469ZM99.1457 22.6942C99.1457 22.6942 92.921 21.8876 90.0895 22.6942C87.258 23.5008 86.151 24.9972 86.151 27.4003C86.151 29.8034 86.7073 30.61 87.9423 31.4778C89.1772 32.3456 91.33 32.7128 92.0587 32.8351C92.7875 32.9575 95.2685 33.0131 95.2295 34.5485C95.1906 36.0838 91.1909 35.7055 91.1909 35.7055L86.5849 35.4719V39.2323C86.5849 39.2323 93.5496 40.0389 96.3866 39.2323C99.2236 38.4257 100.325 36.8682 100.325 34.5262V34.4706C100.325 32.0675 99.7687 31.2609 98.5338 30.3986C97.2989 29.5364 95.1516 29.1526 94.4229 29.0358C93.6942 28.9189 91.2076 28.8633 91.2521 27.3224C91.2966 25.7815 95.2851 26.1654 95.2851 26.1654L99.0066 26.3545L99.1457 22.6942ZM132.1 22.3882H137.573C138.491 27.0665 139.876 31.2887 140.461 36.2952C141.295 31.4834 142.413 26.9553 143.503 22.3882H148.972C147.464 28.0178 145.923 33.6084 144.41 39.2268H136.633C135.109 33.6084 133.518 28.1012 132.072 22.3882H132.1ZM130.759 39.2268H125.313V22.3882H130.759V39.2268Z" fill="white"/>
<path d="M71.9879 11.8133H69.6182V10.1444H76.3603V11.8133H73.9683V18.9225H71.9879V11.8133Z" fill="white"/>
<path d="M82.3235 15.2121H79.097V17.2926H82.7017V18.9225H77.1167V10.1444H82.5237V11.7743H79.097V13.5989H82.3235V15.2121Z" fill="white"/>
<path d="M91.1352 15.557C91.0963 14.5001 91.0573 13.2262 91.0573 11.9523H91.0239C90.7402 13.0649 90.3787 14.3221 90.0393 15.3512L88.9713 18.7723H87.4193L86.4847 15.3901C86.1954 14.3499 85.9284 13.0983 85.6892 11.9523C85.6503 13.1372 85.6002 14.4945 85.5502 15.5848L85.3777 18.9225H83.542L84.0983 10.1444H86.7462L87.6084 13.076C87.8921 14.094 88.1647 15.1899 88.3482 16.2134H88.3983C88.6319 15.1954 88.9546 14.0384 89.2383 13.0649L90.1172 10.1444H92.7206L93.1934 18.9225H91.2631L91.1352 15.557Z" fill="white"/>
<path d="M96.4197 16.6696L95.7911 18.8948H93.7495L96.4197 10.1167H99.0175L101.749 18.8948H99.6071L98.9285 16.6696H96.4197ZM98.6448 15.1844L98.0885 13.3264C97.9327 12.8035 97.7714 12.1527 97.6435 11.6576C97.51 12.1805 97.3765 12.8424 97.2374 13.3264L96.7145 15.1844H98.6448Z" fill="white"/>
<path d="M104.909 10.2725C105.793 10.1446 106.685 10.0814 107.579 10.0834C109.248 10.0834 110.36 10.3949 111.189 11.0179C111.686 11.4082 112.08 11.9135 112.338 12.4901C112.595 13.0668 112.709 13.6974 112.669 14.3278C112.706 14.9904 112.595 15.6529 112.345 16.2677C112.095 16.8824 111.712 17.4339 111.222 17.8824C110.299 18.6501 108.881 18.995 107.162 18.995C106.418 19.0002 105.674 18.9556 104.937 18.8615L104.909 10.2725ZM106.889 17.4263C107.117 17.4606 107.348 17.4736 107.579 17.4652C109.392 17.4652 110.577 16.4917 110.577 14.389C110.577 12.5699 109.504 11.6076 107.796 11.6076C107.495 11.6028 107.195 11.6308 106.9 11.691L106.889 17.4263Z" fill="white"/>
<path d="M118.843 15.2121H115.617V17.2926H119.222V18.9225H113.637V10.1444H119.038V11.7743H115.617V13.5989H118.843V15.2121Z" fill="white"/>
<path d="M127.783 15.2121H124.551V17.2926H128.161V18.9225H122.576V10.1444H127.978V11.7743H124.551V13.5989H127.783V15.2121Z" fill="white"/>
<path d="M129.19 18.9225V10.1444H131.504L133.329 13.3653C133.865 14.3368 134.343 15.34 134.758 16.3692H134.786C134.674 15.1487 134.624 13.9233 134.636 12.6977V10.1444H136.455V18.9225H134.369L132.494 15.557C131.928 14.5541 131.419 13.5196 130.97 12.4585H130.92C130.987 13.6323 131.009 14.8728 131.009 16.3024V18.9447L129.19 18.9225Z" fill="white"/>
<path d="M137.907 16.8811C138.596 17.2363 139.357 17.4267 140.132 17.4374C141.044 17.4374 141.523 17.0592 141.523 16.4862C141.523 15.9132 141.106 15.624 140.054 15.2624C138.597 14.7395 137.629 13.9329 137.629 12.659C137.629 11.1626 138.892 10.0278 140.967 10.0278C141.732 10.0079 142.492 10.158 143.192 10.4673L142.752 12.0582C142.185 11.7794 141.56 11.6365 140.928 11.641C140.065 11.641 139.648 12.0471 139.648 12.4865C139.648 13.0428 140.132 13.2987 141.278 13.727C142.83 14.2833 143.542 15.1066 143.542 16.3416C143.542 17.8157 142.43 19.0673 140.015 19.0673C139.155 19.0734 138.305 18.8831 137.529 18.511L137.907 16.8811Z" fill="white"/>
<path d="M146.535 10.1444H144.555V18.9169H146.535V10.1444Z" fill="white"/>
<path d="M147.97 18.9225V10.1444H150.29L152.109 13.3653C152.647 14.3367 153.127 15.3399 153.544 16.3692C153.43 15.1488 153.378 13.9234 153.388 12.6977V10.1444H155.202V18.9225H153.121L151.252 15.557C150.681 14.5564 150.172 13.5216 149.728 12.4585H149.672C149.739 13.6323 149.767 14.8728 149.767 16.3024V18.9447L147.97 18.9225Z" fill="white"/>
<path d="M164.658 14.4444C164.658 17.337 162.923 19.0671 160.342 19.0671C157.761 19.0671 156.22 17.1034 156.22 14.6168C156.22 11.9856 157.889 10.0164 160.486 10.0164C163.184 10.0164 164.658 12.0357 164.658 14.4666V14.4444ZM158.311 14.5668C158.311 16.3024 159.118 17.5095 160.447 17.5095C161.777 17.5095 162.561 16.2356 162.561 14.5334C162.561 12.9424 161.816 11.5851 160.447 11.5851C159.079 11.5851 158.311 12.8646 158.311 14.5668Z" fill="white"/>
<path d="M17.4173 40.4617C19.8983 40.4172 22.3793 40.1558 24.8603 40.1446C24.729 40.552 24.6743 40.9801 24.699 41.4074C23.4654 41.3953 22.2326 41.4752 21.0109 41.6466C16.7108 42.1528 10.4416 43.41 7.71023 39.11C7.24852 38.3924 7.15395 37.9974 7.86599 37.2687C9.0898 37.9918 10.1523 39.2045 11.5096 39.6829C13.4218 40.2694 15.4185 40.5326 17.4173 40.4617Z" fill="white"/>
<path d="M25.0992 29.1247C25.2883 29.4529 25.4719 29.7922 25.6554 30.1371C25.429 30.4668 25.1253 30.736 24.771 30.9215C24.622 31.0353 24.4987 31.1794 24.4094 31.3442C24.7543 31.767 25.2271 32.2565 24.8155 32.7961C24.4038 33.3357 23.7919 33.4359 23.6584 34.1757C24.0235 34.7326 24.254 35.3668 24.3315 36.0281C24.4094 37.8694 21.8282 38.1698 20.4987 38.2532C18.7159 38.3251 16.932 38.1378 15.203 37.6969C14.1367 37.4057 13.1269 36.9375 12.2157 36.3118C11.4258 35.8 10.1909 34.9044 10.7694 33.8197C11.1755 33.4637 11.4314 33.3747 11.882 33.714C12.594 34.2703 13.1225 35.0268 13.8067 35.5998C14.2517 35.921 14.7432 36.1724 15.2642 36.3452C16.5772 36.846 17.9566 37.1514 19.3584 37.2519C20.5877 37.3298 23.1411 37.2519 22.8629 35.394C22.7739 34.8377 22.4123 34.4316 22.3066 33.9031C22.2697 33.7556 22.2871 33.5997 22.3555 33.4639C22.4239 33.3281 22.5388 33.2214 22.6793 33.1633C23.0632 32.9296 23.4804 32.7349 23.8475 32.4679L24.2481 32.1564C24.0812 31.9728 23.9254 31.7837 23.7418 31.6001C23.3691 31.2552 22.8518 30.9493 22.8295 30.3819L24.4984 29.731C23.8686 28.7097 23.2911 27.657 22.7684 26.5769C21.8243 27.0874 20.8423 27.5244 19.8312 27.8842C18.7576 28.179 18.4127 27.3669 18.2347 26.449C19.1521 25.7412 20.2076 25.2334 21.3332 24.9582C21.9673 24.808 23.002 24.7802 23.2579 25.559C23.3358 25.7982 23.4136 26.0374 23.5082 26.2766C23.9732 27.2667 24.5086 28.2222 25.1103 29.1358" fill="white"/>
<path d="M35.0456 24.2962C36.1232 24.0208 37.2322 23.8881 38.3444 23.9012C38.3777 24.0625 38.4501 24.2628 38.311 24.3796C37.8993 24.591 37.5044 24.8302 37.0816 24.9971C34.9344 25.8315 32.6314 26.1096 30.4063 26.8717C29.2103 27.2945 27.814 27.912 28.0921 29.464C28.2813 30.5766 29.0656 30.8992 30.0614 30.9381C32.0726 30.9479 34.0768 30.6993 36.0247 30.1983C36.5906 30.0278 37.1808 29.9526 37.7714 29.9758C37.2707 31.6502 34.901 32.0118 33.3768 32.2454C31.9583 32.4846 30.5398 32.607 29.2381 33.2634C28.8319 33.4908 28.4925 33.8207 28.2535 34.2202C27.8808 35.1603 27.9308 36.1227 28.8097 36.7513C29.3863 37.0268 30.0247 37.1476 30.6622 37.1017C32.331 37.0572 33.8941 36.5454 35.524 36.3563C35.6814 36.3449 35.8395 36.3449 35.9969 36.3563C35.8689 36.8383 35.5854 37.2646 35.1903 37.569C33.3935 38.192 31.4576 38.409 29.7165 39.2044C28.9688 39.4805 28.3463 40.018 27.9642 40.7175C27.8831 40.8875 27.8378 41.0723 27.8312 41.2605C27.8245 41.4487 27.8566 41.6362 27.9255 41.8115C27.9943 41.9868 28.0985 42.146 28.2315 42.2794C28.3644 42.4127 28.5234 42.5173 28.6985 42.5866C29.811 43.0261 31.0738 42.8425 32.242 42.6645C33.2322 42.5143 34.2168 42.2918 35.2181 42.2139C35.6694 42.1411 36.1321 42.197 36.5531 42.3752C37.2707 42.9871 36.0692 43.371 35.6019 43.4822C34.6879 43.696 33.7575 43.8319 32.8205 43.8883C31.9082 43.9551 30.9959 43.9996 30.0836 43.9996C29.3948 44.0079 28.7097 43.8969 28.0588 43.6714C26.2898 42.9927 25.5333 40.9512 26.8071 39.4436C27.2567 38.9555 27.7875 38.549 28.3759 38.2421C27.5247 37.8638 26.6792 37.5634 26.4178 36.5732C26.3237 36.138 26.2733 35.6945 26.2676 35.2493C26.2019 34.5483 26.4003 33.848 26.8238 33.2856C27.2797 32.8231 27.8007 32.4295 28.3703 32.1175C27.4858 31.7726 26.8127 31.5111 26.5902 30.4486C26.3343 29.2137 26.3287 27.6672 27.4135 26.7994C27.8413 26.4892 28.2933 26.2139 28.7652 25.9761C28.0866 25.7369 27.4246 25.5923 26.9518 25.0305C26.4789 24.4686 26.4344 23.6231 26.3955 22.8499C26.3661 22.1943 26.5244 21.544 26.8516 20.9752C27.3928 20.1924 28.1738 19.6067 29.0768 19.3064C29.6164 19.2184 30.1606 19.1608 30.7067 19.1339C33.4531 19.028 36.1765 18.589 38.8172 17.8267C38.9148 17.8595 38.9987 17.9237 39.0561 18.0092C39.1134 18.0947 39.1409 18.1968 39.1343 18.2995C38.9451 19.1117 38.2331 19.4121 37.4654 19.6679C36.619 19.9012 35.7533 20.0576 34.8787 20.1352C34.061 20.2298 33.2489 20.3132 32.4367 20.4134C31.1771 20.4854 29.9512 20.8471 28.8543 21.4703C27.8975 22.2991 27.9809 23.0724 28.3759 24.1682C28.8445 24.5531 29.4388 24.7512 30.0447 24.7245C31.7076 24.7433 33.3682 24.5942 35.0011 24.2795" fill="white"/>
<path d="M24.0368 20.4857C24.0124 20.8262 23.9165 21.1577 23.7555 21.4586C23.5945 21.7595 23.3719 22.0232 23.1023 22.2324C22.0231 23.0502 20.688 23.345 19.4753 23.9013C18.3715 24.4204 17.308 25.0209 16.2934 25.6981C13.7188 27.3122 11.5659 29.5166 10.013 32.1286C10.0798 32.5013 10.2689 32.7684 9.90732 33.0576C9.65913 33.1889 9.38054 33.2518 9.10004 33.2401C8.81953 33.2284 8.54717 33.1424 8.3108 32.9909C7.86022 32.4847 8.09385 31.8227 8.38312 31.322C8.66278 30.833 8.97695 30.3646 9.32323 29.9202C11.7264 26.6827 15.103 24.6578 18.8412 23.2949C20.3765 22.7387 22.4681 21.9098 22.7351 20.0407C22.7351 19.9183 22.7629 19.7904 22.774 19.668C22.0706 19.2308 21.2943 18.9237 20.4822 18.7613C17.4171 18.0214 14.3631 17.3038 11.1812 17.9102C8.23292 18.4664 5.14558 20.291 4.31672 23.345C3.93289 24.7413 4.1554 25.826 4.53923 27.2389C5.01207 28.969 5.65179 30.7046 5.71854 32.518C5.75874 32.9661 5.69817 33.4174 5.54128 33.839C5.38438 34.2606 5.13514 34.6418 4.81181 34.9545C3.56575 36.1394 1.56871 36.0726 0 35.6388V34.3704C0.0278139 34.3704 0.0945674 34.3704 0.116819 34.3704C1.51308 34.7431 3.40999 35.1937 3.74932 33.2579C3.93289 32.1898 3.588 30.9716 3.32655 29.9202C2.84258 28.0567 1.96366 26.1598 2.21399 24.185C2.85371 18.8948 8.72801 16.5473 13.4008 16.4249C15.4045 16.4108 17.401 16.6672 19.3362 17.187C20.5675 17.4709 21.7634 17.8907 22.902 18.4386C23.2557 18.6175 23.5832 18.844 23.8755 19.1117C24.0048 19.3135 24.0866 19.5421 24.1145 19.7801C24.1425 20.0182 24.1159 20.2595 24.0368 20.4857Z" fill="white"/>
<path d="M44.8473 21.6151C44.0852 22.3327 43.1785 22.9279 43.2118 24.0739C43.7652 24.478 44.1885 25.0348 44.4301 25.6759C44.5506 26.1975 44.5356 26.7411 44.3866 27.2552C44.2376 27.7693 43.9596 28.2368 43.579 28.6131C42.8558 29.3585 41.9102 29.759 42.5388 30.994C42.933 31.5601 43.2475 32.1778 43.4733 32.8297C43.7626 34.2816 42.0381 35.5221 41.1425 36.3342C40.8755 36.8905 41.1425 37.5136 41.0813 38.1032C40.9422 39.5384 40.1189 40.8067 38.5057 40.7622C38.3778 40.7784 38.2486 40.7447 38.145 40.668C38.0414 40.5913 37.9713 40.4776 37.9495 40.3506C37.7937 39.7943 38.1831 39.6497 38.617 39.4383C38.7221 39.3074 38.8187 39.1699 38.9063 39.0266C39.5404 37.7194 38.5113 36.6179 39.7518 35.4331C40.4138 34.7989 41.2371 34.3817 41.4929 33.4805C41.7488 32.5794 41.1091 32.0787 40.6919 31.3945C39.5126 29.4642 41.6042 28.6687 42.3607 27.2836C42.4331 26.6717 42.6611 26.2155 42.3607 25.4868C41.7711 24.9806 41.1481 24.5634 41.2482 23.69C41.4151 22.2548 42.6945 21.6763 43.4733 20.6472C44.8696 18.8282 42.7112 16.9146 40.9589 16.6976C38.9603 16.526 36.9487 16.5801 34.9622 16.8589C33.9111 16.9345 32.8547 16.8897 31.8137 16.7254C31.6822 16.7074 31.5601 16.6474 31.4654 16.5545C31.3706 16.4616 31.3084 16.3406 31.2878 16.2096C31.2672 16.0785 31.2893 15.9442 31.351 15.8267C31.4127 15.7093 31.5105 15.6148 31.6301 15.5572C31.982 15.4741 32.3501 15.4914 32.6926 15.6073C34.3948 15.891 36.1137 15.3625 37.8159 15.3403C38.4668 15.3403 41.8768 15.4571 42.0325 15.6629C42.9437 15.9436 43.7958 16.3886 44.5469 16.9758C46.2158 18.2441 46.2158 20.1688 44.8473 21.6429" fill="white"/>
<path d="M29.6996 10.4226C29.292 11.2386 28.9479 12.0848 28.6704 12.9537C28.4479 13.6879 28.053 14.8506 29.0877 15.151C29.5939 15.2956 29.8609 15.24 30.089 15.7907C30.0556 16.1467 30.0278 16.3859 29.6551 16.5027C28.9603 16.5065 28.2757 16.3363 27.6636 16.0076C27.218 15.8139 26.8558 15.4681 26.6418 15.0319C26.4278 14.5958 26.3759 14.0977 26.4954 13.6268C26.5566 13.4042 26.6289 13.1762 26.6901 12.9481C27.213 10.9455 28.5814 9.14871 28.5481 7.0126C28.5481 5.03781 28.0697 2.87389 26.4898 1.53882C26.2756 1.3705 26.0201 1.2629 25.75 1.22731C25.355 3.71387 25.0713 6.64546 23.5249 8.75375C21.9061 10.9511 20.1483 13.0093 17.6951 14.3165C16.0521 15.1106 14.2663 15.5665 12.4438 15.6572C9.34459 15.9547 6.21949 15.4946 3.33752 14.3165C2.78124 14.0718 2.46973 13.8826 2.78124 13.2819C3.09276 12.8869 3.24852 13.0594 3.68798 13.0093C5.02744 13.633 6.44921 14.062 7.91013 14.2832C10.2556 14.657 12.653 14.5434 14.9526 13.9494C15.984 13.6495 16.9501 13.1589 17.8008 12.5031C19.6276 11.0955 21.1429 9.32448 22.251 7.30187C23.1243 5.76654 23.2801 4.0087 23.5694 2.29536C23.6973 1.52213 23.803 0.226005 24.7987 0.0702467C25.554 -0.071185 26.3337 0.00186334 27.0495 0.281105C27.7653 0.560347 28.3885 1.0346 28.8485 1.65008C30.6564 3.87519 30.9901 7.51882 29.8498 10.1222C29.8053 10.2279 29.7496 10.328 29.6996 10.4337" fill="white"/>
</svg>
